<svg version="1.1" id="Layer_1" xmlns="http://www.w3.org/2000/svg" xmlns:xlink="http://www.w3.org/1999/xlink" x="0px" y="0px"
	 width="100%" viewBox="0 0 992 992" enable-background="new 0 0 992 992" xml:space="preserve">
<path fill="#000000" opacity="1.000000" stroke="none" 
	d="
M541.212341,664.690002 
	C548.961853,665.311279 551.882263,669.348694 549.836060,676.615662 
	C548.304504,682.055115 546.220947,687.336914 544.515503,692.730713 
	C543.976135,694.436646 542.883972,696.061096 543.351868,698.284729 
	C546.133057,699.359070 549.066284,697.909912 552.028870,698.472107 
	C561.894409,700.344421 568.219543,708.477356 566.437378,718.361816 
	C564.747192,727.736450 560.476379,736.345337 557.662842,745.394714 
	C556.869324,747.946838 554.384644,751.166260 557.300171,753.172058 
	C560.558838,755.414062 563.637573,752.812622 566.100098,750.494202 
	C567.658691,749.026794 569.251831,747.388916 570.194519,745.509094 
	C575.198425,735.529846 577.895081,724.728088 581.635986,714.210083 
	C578.629944,712.815308 575.517883,712.839172 574.055847,709.855164 
	C571.629456,704.903198 574.436035,699.209351 580.737000,698.642883 
	C586.605469,698.115295 588.939453,695.315430 590.443420,690.153259 
	C592.255737,683.932617 594.724854,677.896118 597.058167,671.837158 
	C598.585999,667.869873 601.204895,664.991150 605.793823,664.692749 
	C612.040222,664.286499 616.314270,669.383545 614.505188,675.397522 
	C612.357544,682.537292 609.875183,689.576355 607.609436,696.442383 
	C609.063110,698.396667 610.944092,697.850647 612.473511,698.251831 
	C615.373901,699.012634 617.942749,699.963501 618.280273,703.476440 
	C618.633667,707.154358 617.312195,709.982544 614.006104,711.791321 
	C611.418945,713.206787 608.602661,713.495239 605.756104,713.262451 
	C602.612183,713.005310 600.923889,714.214661 599.907654,717.298767 
	C596.834534,726.625427 593.398987,735.832031 590.268921,745.140625 
	C588.220947,751.231140 590.993896,754.701843 597.346008,753.782043 
	C604.973267,752.677673 609.217468,747.190063 611.771729,740.635742 
	C615.758423,730.405640 619.131958,719.936890 622.786316,709.576782 
	C623.781677,706.755066 624.646118,703.864258 626.751770,701.580322 
	C629.948486,698.112854 634.305176,697.167542 638.025818,699.363342 
	C642.061829,701.745361 643.138306,705.363770 641.658325,709.679260 
	C637.607971,721.489868 633.420471,733.253601 629.401917,745.074829 
	C628.482361,747.779846 626.413269,751.147217 629.816406,753.196960 
	C633.144592,755.201538 636.198914,753.092163 638.705200,750.648193 
	C639.655823,749.721252 640.622070,748.751770 641.326965,747.640442 
	C647.895691,737.284546 651.500244,725.717529 655.402100,713.995850 
	C650.934998,712.781921 647.291321,711.034668 647.780273,705.956970 
	C648.294861,700.613037 652.297546,698.697205 656.841248,698.314880 
	C660.705444,697.989685 662.195984,696.015625 663.336975,692.697632 
	C665.606934,686.096191 667.438721,679.312622 670.758850,673.104614 
	C675.918762,663.456604 686.310913,658.144714 697.040222,659.669067 
	C709.114258,661.384521 716.446350,674.983826 711.186096,685.906189 
	C708.933411,690.583679 704.347534,692.639282 699.522705,691.134338 
	C695.454163,689.865356 693.853027,686.566833 694.570862,681.148682 
	C694.828186,679.206787 695.502014,676.823608 693.005188,675.952881 
	C690.510681,675.083069 688.868042,676.813354 687.932007,678.905151 
	C685.354919,684.664368 683.353455,690.632324 681.692627,696.572144 
	C683.038391,698.404358 684.927673,697.832764 686.449036,698.278076 
	C689.830078,699.267700 692.213135,701.132080 692.224792,704.841370 
	C692.236145,708.459229 690.676819,711.293701 686.994080,712.488770 
	C685.896301,712.844971 684.656555,713.376831 683.608337,713.174133 
	C676.250061,711.750916 674.177551,716.184570 672.156494,722.125671 
	C662.774902,749.704590 652.985901,777.145020 643.329285,804.630249 
	C642.778320,806.198425 642.219299,807.780823 641.473389,809.260376 
	C638.715637,814.730347 633.610779,816.888916 628.639404,814.776245 
	C624.248108,812.910156 622.372498,808.118042 624.261902,802.420471 
	C627.038940,794.046387 630.134216,785.778198 633.042358,777.446899 
	C633.854797,775.119568 635.075134,772.892700 635.111511,770.229187 
	C633.232849,768.593323 630.976135,769.438171 628.925964,769.353455 
	C624.657593,769.177246 620.461487,768.375916 617.228882,765.649109 
	C614.330811,763.204407 612.248718,763.827698 609.311340,765.425537 
	C599.174805,770.939941 588.903931,771.119019 579.020447,764.779785 
	C576.416016,763.109375 574.650513,763.529907 572.292358,765.036255 
	C565.494446,769.378723 558.119507,770.639465 550.311401,768.213196 
	C540.663269,765.215149 535.544678,756.431274 538.334778,746.691528 
	C540.761108,738.221741 543.942810,729.969360 546.746521,721.606140 
	C547.634094,718.958557 549.194702,715.932007 545.947144,713.984497 
	C542.913269,712.165222 540.654419,714.572693 538.472168,716.366760 
	C535.932678,718.454529 534.565063,721.269714 533.503723,724.303955 
	C529.381592,736.089111 525.269897,747.878418 521.058899,759.631958 
	C517.966553,768.263123 514.976685,769.940857 506.187714,767.956177 
	C504.408600,767.554382 503.328979,768.459778 502.064178,769.153503 
	C497.386597,771.719299 492.695679,774.303467 487.556366,775.789124 
	C484.635925,776.633301 483.329987,778.455994 482.311676,781.148926 
	C479.154663,789.497620 477.163452,798.397156 470.178894,804.899658 
	C461.736298,812.759277 448.410736,814.987305 438.133392,809.830139 
	C425.342743,803.411743 423.277496,787.916504 433.916779,778.289246 
	C436.541565,775.914124 439.472321,774.023438 442.770111,772.769470 
	C446.021698,771.533020 449.334106,770.456482 452.667358,769.293274 
	C448.355011,763.695435 447.705261,763.672607 441.947968,766.373291 
	C432.535797,770.788574 423.206757,771.018127 414.680298,764.331848 
	C412.296692,762.462524 410.731812,763.011963 408.482422,764.160645 
	C395.469635,770.805908 381.335999,772.899780 367.776367,768.371094 
	C358.329071,765.215820 350.779144,764.822205 341.357178,768.412720 
	C329.334747,772.994202 317.606995,765.055786 316.300690,753.605896 
	C315.855774,749.706055 316.968597,746.005371 318.213562,742.389038 
	C320.706146,735.148438 323.345490,727.958496 325.880829,720.732483 
	C326.706818,718.378296 327.868225,715.709656 325.155151,713.964539 
	C322.622559,712.335449 320.343353,714.008240 318.382721,715.600159 
	C315.318298,718.088135 313.536499,721.429932 312.233215,725.121948 
	C308.021973,737.051941 303.686584,748.938171 299.470276,760.866394 
	C298.245911,764.330139 296.387573,767.226746 292.855865,768.540222 
	C289.477051,769.796814 285.914734,770.229065 282.913055,767.690002 
	C279.945892,765.180298 280.171265,761.728699 281.246552,758.450684 
	C283.165985,752.599121 285.322723,746.825134 287.394562,741.023926 
	C291.593689,729.265869 295.759125,717.495483 300.023041,705.760925 
	C302.660095,698.503662 307.078857,696.439270 314.031738,699.417969 
	C316.076477,700.294006 317.694122,700.316467 319.689789,699.581421 
	C327.377533,696.749634 334.576721,697.794373 340.560028,703.454285 
	C346.684113,709.247253 346.488617,716.396240 343.863525,723.809265 
	C341.029877,731.811340 338.197449,739.815491 335.535278,747.875122 
	C335.010651,749.463379 333.670441,751.464233 335.498169,752.991394 
	C337.399475,754.579956 339.655457,754.002258 341.604828,752.946716 
	C345.106171,751.050903 347.733978,748.323975 348.469910,744.234497 
	C349.634918,737.760681 353.169189,732.921509 358.662811,729.508728 
	C360.471649,728.384888 361.565247,726.839600 362.518280,725.061890 
	C366.609955,717.429138 370.647400,709.766113 374.845795,702.192322 
	C377.301910,697.761536 381.113800,695.516846 386.326782,695.614624 
	C390.607025,695.695007 393.772461,697.434937 395.474487,701.329407 
	C397.126556,705.109619 397.122864,709.250122 394.043945,712.033630 
	C390.317596,715.402466 391.602997,718.314209 393.393066,721.718079 
	C396.942139,728.466736 401.596069,734.727295 402.745880,742.556885 
	C402.986053,744.192261 403.271179,745.821045 403.604675,747.879456 
	C408.558197,745.681274 410.892334,741.618713 412.513306,737.076477 
	C415.981964,727.356812 419.306885,717.585938 422.703003,707.840332 
	C423.640747,705.149353 424.723114,702.518799 427.004547,700.642639 
	C430.287415,697.942871 433.864441,697.251221 437.615967,699.561035 
	C441.505554,701.955872 442.107239,705.710876 440.852020,709.643860 
	C438.372803,717.412415 435.578888,725.080444 432.912872,732.789368 
	C431.280609,737.509033 429.635925,742.224487 428.013763,746.947632 
	C427.300629,749.024048 426.444000,751.368530 428.461365,752.970154 
	C430.677460,754.729553 433.259918,754.042725 435.451843,752.572021 
	C439.448975,749.890259 442.205139,746.147766 443.875122,741.673218 
	C447.134003,732.941223 450.617523,724.273010 453.400970,715.388245 
	C457.925476,700.946106 475.317444,692.251709 490.556458,702.912048 
	C490.870972,702.822937 491.263794,702.818726 491.485352,702.621826 
	C496.792847,697.906677 500.750031,696.990356 504.810547,699.799988 
	C509.811249,703.260132 508.326416,708.048645 506.826904,712.456482 
	C502.698822,724.591003 498.291290,736.630310 494.008087,748.712158 
	C493.188995,751.022644 492.432678,753.355347 491.236237,756.893677 
	C500.613495,752.107422 506.542175,745.886963 509.672058,737.070984 
	C515.631592,720.284546 521.539185,703.479553 527.490112,686.690125 
	C529.213867,681.826965 530.909973,676.949829 532.808655,672.154297 
	C534.264771,668.476685 536.433044,665.363525 541.212341,664.690002 
M479.661804,734.262634 
	C481.056671,730.363098 482.468628,726.469604 483.841614,722.562378 
	C485.222900,718.631409 483.954712,715.558655 480.254456,713.951721 
	C476.220703,712.199951 473.267822,714.377319 471.923370,717.958618 
	C468.082275,728.190796 464.563873,738.545288 461.006012,748.881775 
	C459.899017,752.097900 461.649811,753.672913 464.657776,753.831604 
	C469.894196,754.107727 472.955505,750.766479 474.992584,746.603577 
	C476.804108,742.901611 477.973267,738.885376 479.661804,734.262634 
M372.871155,750.650513 
	C371.338196,751.072266 369.805267,751.494019 368.153687,751.948425 
	C371.578064,755.620056 377.144714,756.010193 380.485382,752.999878 
	C385.112671,748.830139 384.705536,739.968323 379.642761,734.657837 
	C380.977570,742.457153 379.395844,746.523376 372.871155,750.650513 
M457.685364,784.001648 
	C453.835846,785.125610 450.021271,786.332886 447.462006,789.732971 
	C446.286438,791.294800 445.889008,793.103271 446.726196,794.897400 
	C447.449799,796.448059 448.978088,796.718018 450.564941,796.582642 
	C455.189453,796.188354 460.662048,788.614807 459.605652,783.989075 
	C459.570618,783.835510 458.739288,783.863831 457.685364,784.001648 
z"/>
<path fill="#000000" opacity="1.000000" stroke="none" 
	d="
M586.341431,587.999634 
	C586.336121,593.831970 586.301819,599.164734 586.336060,604.497009 
	C586.359985,608.221924 584.761292,610.879395 580.923035,610.871216 
	C576.985962,610.862915 575.659241,607.991577 575.661499,604.365112 
	C575.669250,591.700256 575.516296,579.033081 575.728210,566.371887 
	C575.795105,562.371887 574.433228,561.200684 570.541626,561.231140 
	C550.878906,561.384827 531.213318,561.414551 511.551300,561.224609 
	C507.243317,561.183044 506.216736,562.795837 506.276123,566.779175 
	C506.464874,579.441040 506.322388,592.107727 506.324768,604.772583 
	C506.325409,608.300293 504.688782,610.777954 501.154816,610.890747 
	C497.224884,611.016113 495.704315,608.286011 495.673004,604.616333 
	C495.661621,603.283264 495.651245,601.950134 495.650970,600.617065 
	C495.648560,589.285339 495.489532,577.950195 495.730682,566.623596 
	C495.819702,562.442444 494.414703,561.187805 490.300262,561.224609 
	C470.804565,561.399231 451.304901,561.439209 431.810364,561.210022 
	C427.242462,561.156311 425.931274,562.771851 426.289795,567.019653 
	C426.583069,570.494385 426.395844,574.014404 426.337128,577.512939 
	C426.256226,582.332703 426.300354,586.547424 430.756134,590.378052 
	C435.792694,594.707947 434.779114,602.730469 429.928375,607.352844 
	C424.713104,612.322632 416.997955,612.276123 411.958374,607.244568 
	C407.242554,602.536255 406.480499,594.579895 411.354401,590.196838 
	C415.250977,586.692749 415.918701,582.939392 415.691803,578.303833 
	C415.488342,574.147644 415.473602,569.964294 415.699127,565.810547 
	C415.893799,562.224548 414.359100,561.211243 410.986694,561.254089 
	C399.990021,561.393982 388.990265,561.347351 377.992035,561.299988 
	C360.979889,561.226685 350.660248,550.816833 350.656311,533.799500 
	C350.653870,523.300964 350.398804,512.793518 350.764709,502.307800 
	C350.939301,497.304901 349.114868,495.832336 344.453796,496.247894 
	C340.981873,496.557465 337.456299,496.414124 333.961639,496.283722 
	C329.246033,496.107697 325.250153,496.434265 321.589355,500.618652 
	C317.317230,505.501801 308.678162,504.430328 304.089508,499.542755 
	C299.503906,494.658539 299.496979,486.538513 304.074341,481.832184 
	C308.812927,476.959991 317.191833,475.986267 321.612457,480.901672 
	C325.214661,484.907074 329.138977,485.115936 333.660553,485.033264 
	C337.325500,484.966217 341.007629,484.805267 344.654907,485.066162 
	C349.061523,485.381470 350.824799,484.034302 350.759064,479.215759 
	C350.497742,460.055359 350.554321,440.888367 350.729370,421.725983 
	C350.766602,417.652802 349.596588,416.155273 345.384583,416.234680 
	C333.390564,416.460968 321.389435,416.323059 309.391205,416.300781 
	C307.898651,416.298004 306.342285,416.366028 304.927795,415.984680 
	C302.251923,415.263275 300.636810,413.458557 300.747314,410.529541 
	C300.847473,407.875824 302.219391,406.090820 304.849579,405.602478 
	C306.800140,405.240356 308.810883,405.060181 310.796051,405.050446 
	C322.294189,404.994110 333.794952,404.880280 345.289886,405.075562 
	C349.423004,405.145782 350.764069,403.724243 350.726929,399.586517 
	C350.553528,380.257446 350.540924,360.924866 350.737488,341.596252 
	C350.780670,337.349365 349.292999,336.171875 345.254974,336.240601 
	C333.426727,336.441895 321.592865,336.320312 309.761200,336.306580 
	C308.264526,336.304871 306.717072,336.413025 305.282410,336.082581 
	C302.616089,335.468475 300.813385,333.831635 300.755676,330.888977 
	C300.698944,327.997833 302.133667,326.092987 304.988098,325.568878 
	C306.939453,325.210602 308.953278,325.059540 310.940277,325.050079 
	C322.271759,324.995972 333.606537,324.861847 344.933838,325.082031 
	C349.194519,325.164795 350.848480,323.950623 350.742004,319.444489 
	C350.470551,307.952545 350.612579,296.449646 350.667603,284.951538 
	C350.727722,272.393951 360.206696,261.995026 372.702515,260.640320 
	C384.835236,259.324982 397.007507,260.067383 409.156342,260.101227 
	C414.012421,260.114746 416.353027,258.976196 415.718292,253.700348 
	C415.342804,250.579315 415.623901,247.375916 415.656219,244.210007 
	C415.705170,239.416397 415.778656,235.198990 411.253632,231.351959 
	C405.971344,226.861099 407.200714,218.271332 412.503662,213.622894 
	C417.672363,209.092178 425.987213,209.547775 430.553528,214.612000 
	C435.436737,220.027634 435.131012,228.176147 429.473206,232.870178 
	C427.144287,234.802383 426.220520,236.775925 426.304016,239.678879 
	C426.452545,244.840591 426.485413,250.014435 426.301544,255.173767 
	C426.182434,258.515869 427.253967,260.037506 430.809692,260.021454 
	C450.972992,259.930237 471.137177,259.923706 491.300415,260.016998 
	C494.976288,260.034027 495.721558,258.284698 495.694000,255.065536 
	C495.585541,242.401627 495.607330,229.735870 495.685150,217.071457 
	C495.715363,212.152420 498.269745,209.855240 502.386078,210.795151 
	C505.919556,211.601944 506.362640,214.308258 506.355255,217.347534 
	C506.325653,229.512421 506.557922,241.682861 506.244720,253.839691 
	C506.119629,258.694824 507.709717,260.147156 512.476929,260.092651 
	C531.638367,259.873566 550.804626,259.899445 569.967163,260.064331 
	C574.232727,260.101074 575.842224,258.883942 575.742249,254.394241 
	C575.471375,242.235336 575.678650,230.066315 575.638184,217.901489 
	C575.625366,214.060822 576.153442,210.689224 581.066467,210.728226 
	C586.018860,210.767563 586.368042,214.237747 586.355652,218.022827 
	C586.316895,229.854355 586.578918,241.692856 586.237915,253.514603 
	C586.093689,258.517334 587.527771,260.165344 592.649048,260.132568 
	C604.795593,260.054810 616.966980,259.321716 629.100464,260.640228 
	C641.613647,262.000000 651.128357,272.214050 651.305664,284.865845 
	C651.469055,296.528595 651.477417,308.197601 651.279907,319.859192 
	C651.212952,323.810913 652.594055,325.300842 656.488708,325.039795 
	C659.806458,324.817383 663.155762,324.889282 666.483093,325.025543 
	C671.857178,325.245697 676.543030,324.934937 680.940308,320.508392 
	C685.727173,315.689636 694.516541,317.456879 698.670654,322.851532 
	C702.828979,328.251617 702.057068,336.068176 696.933289,340.443787 
	C691.581299,345.014252 683.596680,344.719543 678.994812,339.366760 
	C677.029907,337.081238 675.041077,336.189850 672.147339,336.269958 
	C666.652344,336.422089 661.146790,336.431366 655.652222,336.271759 
	C652.397217,336.177185 651.288635,337.449127 651.304565,340.677673 
	C651.402466,360.507721 651.425171,380.339020 651.288635,400.168640 
	C651.262634,403.944427 652.698914,405.095062 656.290527,405.051849 
	C667.453918,404.917480 678.620056,405.010437 689.785156,405.026825 
	C691.450806,405.029266 693.122253,405.017670 694.780762,405.145386 
	C698.499695,405.431732 701.419250,406.852722 701.206848,411.153107 
	C701.005005,415.238586 697.986694,416.267670 694.529785,416.280548 
	C681.865112,416.327698 669.198853,416.406677 656.536072,416.247070 
	C652.769653,416.199615 651.225037,417.180664 651.265625,421.298553 
	C651.457458,440.793915 651.469421,460.293488 651.261536,479.788544 
	C651.214355,484.211334 653.023254,485.114288 656.911743,485.056549 
	C667.907593,484.893250 678.907715,485.003601 689.906128,485.026947 
	C691.737183,485.030823 693.578003,485.038940 695.396851,485.220184 
	C699.012085,485.580383 701.474487,487.328552 701.208496,491.276031 
	C700.953979,495.053802 698.174683,496.238983 694.895752,496.257965 
	C682.231384,496.331238 669.562866,496.469666 656.903320,496.214386 
	C652.463867,496.124847 651.151489,497.570648 651.259644,501.935303 
	C651.531921,512.927002 651.361816,523.929993 651.344543,534.928467 
	C651.320740,550.136902 640.628052,561.038818 625.307068,561.263123 
	C614.644104,561.419312 603.977173,561.299377 593.312012,561.308594 
	C586.353821,561.314636 586.352722,561.319275 586.348511,568.513245 
	C586.344849,574.842102 586.343933,581.170898 586.341431,587.999634 
M407.500061,271.321716 
	C397.834259,271.323059 388.168396,271.305023 378.502655,271.330811 
	C367.061523,271.361359 361.358795,277.088226 361.357117,288.618835 
	C361.345306,369.945587 361.345612,451.272369 361.356659,532.599121 
	C361.358246,544.402710 366.938202,550.018372 378.780823,550.021851 
	C460.274200,550.045776 541.767578,550.049011 623.260986,550.028015 
	C635.140625,550.024902 640.642578,544.471985 640.644897,532.582764 
	C640.660461,451.422668 640.589905,370.262421 640.736145,289.102600 
	C640.755249,278.502930 634.513245,271.123322 622.982117,271.170563 
	C551.489136,271.463409 479.994293,271.320465 407.500061,271.321716 
z"/>
<path fill="#000000" opacity="1.000000" stroke="none" 
	d="
M713.600220,704.753174 
	C714.558289,707.532837 713.656677,709.730408 712.889404,711.927612 
	C708.717957,723.873718 704.504333,735.805298 700.369873,747.764160 
	C699.747070,749.565735 698.463745,751.586182 700.526611,753.285645 
	C702.789185,755.149597 705.016846,753.951416 706.972351,752.701965 
	C710.606873,750.379578 712.916565,746.993896 714.301880,742.899292 
	C718.357239,730.912781 722.477966,718.948425 726.592712,706.982056 
	C727.024719,705.725830 727.455444,704.438721 728.112549,703.295776 
	C730.683716,698.823792 735.723572,697.113708 740.119629,699.126404 
	C744.320679,701.049805 746.216736,705.562073 744.565735,710.470276 
	C740.106934,723.725891 735.516785,736.937256 730.990173,750.170044 
	C730.405640,751.878784 729.888184,753.610474 729.229370,755.677734 
	C731.815186,756.119629 733.256836,754.625977 734.716919,753.468201 
	C740.554749,748.839417 745.216125,743.282898 748.060974,736.298035 
	C748.810303,734.458313 749.612976,732.553833 750.808533,731.000244 
	C753.430176,727.593384 757.088806,726.332214 761.009766,728.170837 
	C765.002258,730.042908 765.455139,733.728149 764.185364,737.592834 
	C759.576416,751.620422 751.030640,762.539978 738.170288,769.909485 
	C735.146301,771.642273 732.018860,773.513062 728.695374,774.334778 
	C722.773560,775.798706 719.827942,779.372620 718.411987,785.074280 
	C717.496643,788.760010 715.947937,792.340515 714.296021,795.782410 
	C706.712341,811.583313 687.026611,817.665649 673.394165,808.530640 
	C662.055603,800.932800 661.467102,786.146423 672.125366,777.559082 
	C677.307800,773.383606 683.549927,771.510315 689.689819,769.419800 
	C689.756775,767.786377 688.371582,767.514771 687.537415,766.877747 
	C680.484802,761.491577 678.293823,755.645630 681.130127,747.154236 
	C685.824097,733.101257 690.892761,719.172913 695.863342,705.213318 
	C697.335144,701.079773 700.342651,698.349915 704.739258,698.251282 
	C708.836548,698.159363 712.127808,700.099792 713.600220,704.753174 
M695.620056,790.116028 
	C696.203674,788.130920 697.426147,786.281372 697.126038,783.680786 
	C692.586365,784.625366 688.434204,785.729797 685.424744,789.091309 
	C683.992310,790.691345 682.915771,792.821899 684.354736,795.008789 
	C685.871643,797.314148 688.006897,796.751404 690.123535,795.859009 
	C692.531128,794.843994 694.306335,793.207214 695.620056,790.116028 
z"/>
<path fill="#000000" opacity="1.000000" stroke="none" 
	d="
M300.366547,678.060181 
	C291.055908,705.014404 281.825989,731.567383 272.621155,758.129028 
	C271.631042,760.986084 270.532410,763.795227 268.363403,765.954712 
	C265.142059,769.161926 261.272491,770.570068 257.019897,768.391663 
	C252.806320,766.233276 251.349960,762.486023 252.462936,757.865356 
	C254.728012,748.461426 258.495605,739.550232 261.605927,730.426392 
	C267.885681,712.005310 274.382294,693.658081 280.805542,675.286072 
	C281.298676,673.875549 281.813660,672.455200 282.497314,671.131714 
	C285.144501,666.006714 290.703796,663.460205 295.362701,665.159485 
	C299.939667,666.828735 301.836700,671.486572 300.366547,678.060181 
z"/>
<path fill="#000000" opacity="1.000000" stroke="none" 
	d="
M449.402710,685.511719 
	C443.540253,688.824646 439.551666,688.655640 436.023712,684.972168 
	C432.738159,681.541626 431.633148,677.514099 433.940216,673.131958 
	C436.196411,668.846375 439.955688,667.077271 444.731354,667.760803 
	C448.711548,668.330627 451.305420,670.752319 452.659241,674.463013 
	C454.214081,678.724670 452.815521,682.241577 449.402710,685.511719 
z"/>
<path fill="#000000" opacity="1.000000" stroke="none" 
	d="
M645.645630,667.748535 
	C651.547668,669.987244 654.484802,673.881470 654.060669,678.396667 
	C653.602051,683.279236 649.635437,687.327820 644.681824,687.969421 
	C640.599182,688.498169 636.261719,685.788086 634.435608,681.567444 
	C631.354187,674.445374 636.515869,667.816345 645.645630,667.748535 
z"/>
<path fill="#000000" opacity="1.000000" stroke="none" 
	d="
M529.561890,521.149048 
	C517.912415,522.052979 508.623138,518.127930 501.052795,509.390503 
	C494.487305,516.817322 486.633698,521.025574 476.942139,521.302307 
	C470.212830,521.494507 464.090302,519.525269 458.698822,515.582153 
	C456.625488,514.065796 454.805573,513.660828 452.282074,514.301758 
	C432.061829,519.437805 414.668610,505.700897 414.727295,484.665894 
	C414.735229,481.817963 414.434967,479.839661 411.446838,478.250488 
	C388.228638,465.902405 383.399963,438.297516 400.871674,418.755219 
	C401.639008,417.896912 402.429932,417.059692 403.685699,415.695923 
	C396.677795,409.323212 393.327240,401.433167 394.796448,392.032410 
	C396.293030,382.456146 402.265961,376.319824 411.235199,372.398834 
	C408.557648,358.793213 410.896576,346.374969 420.689728,336.282379 
	C430.400238,326.274994 442.677673,323.843567 456.430054,326.122803 
	C457.753632,314.843231 461.699951,305.549408 473.067383,301.920044 
	C483.621735,298.550201 493.117889,300.607910 500.680237,308.990784 
	C522.043701,293.033386 540.108826,299.729919 545.668091,325.677155 
	C551.623413,325.960815 557.693176,324.846527 563.767456,326.444275 
	C582.169312,331.284576 593.722656,347.649994 591.373657,366.565277 
	C590.867371,370.642120 591.571533,372.908386 595.518738,375.142700 
	C608.695923,382.601654 611.492798,400.107178 601.858826,411.862274 
	C600.819519,413.130402 599.711548,414.342194 598.470825,415.769379 
	C601.626099,419.615417 605.054993,423.008423 607.306213,427.311432 
	C616.817566,445.492004 610.110535,467.772156 591.800415,477.600189 
	C588.361267,479.446136 587.190735,481.376404 587.225708,485.264160 
	C587.409912,505.776611 569.523865,519.514404 549.646667,514.329529 
	C547.604553,513.796936 545.916504,513.553711 544.094299,515.045532 
	C540.004822,518.393616 535.117371,520.046143 529.561890,521.149048 
M495.649475,392.500061 
	C495.647095,370.513367 495.688904,348.526550 495.617310,326.540100 
	C495.593567,319.243225 492.230713,314.375122 486.128204,312.197754 
	C480.931641,310.343658 474.593353,312.038177 471.166534,316.197662 
	C467.415283,320.751068 467.187744,326.837708 470.727020,332.943054 
	C472.453308,335.920898 473.407837,338.888367 470.656128,341.589935 
	C467.956390,344.240448 465.123505,342.877258 462.486511,341.157593 
	C458.378265,338.478516 453.971191,336.579071 449.018250,336.360931 
	C429.530182,335.502686 416.689362,353.052155 422.999878,371.864685 
	C425.503204,379.327393 424.648376,380.859009 417.076019,382.478577 
	C410.557617,383.872742 405.963165,388.858887 405.398865,395.151062 
	C404.871765,401.028442 408.933563,406.825073 415.353058,409.103607 
	C418.228149,410.124054 421.233063,410.834320 421.497223,414.658173 
	C421.755798,418.401154 419.049377,419.759399 416.326935,421.197906 
	C406.235718,426.529907 401.001221,435.015320 401.499298,446.349152 
	C401.988922,457.491089 409.638580,466.352631 420.716064,469.933655 
	C427.664307,472.179901 428.012390,473.064514 426.549774,480.406189 
	C425.116028,487.602997 425.757782,494.537354 431.770782,499.653229 
	C437.515961,504.541290 444.351746,506.320282 451.267914,502.891907 
	C456.581360,500.258026 459.865021,501.415070 463.952332,505.294037 
	C473.441559,514.299561 489.816071,510.336273 494.027100,498.158264 
	C496.575043,490.789917 496.553009,483.047638 494.480957,475.529846 
	C492.654053,468.901337 486.368774,464.944122 479.136169,465.241882 
	C472.310669,465.522858 466.827972,470.127563 465.317780,476.849762 
	C464.916718,478.634918 464.674652,480.473633 464.087280,482.194824 
	C463.217041,484.745178 461.178040,485.733734 458.582428,485.537262 
	C456.131012,485.351654 454.481171,483.904144 454.003906,481.602173 
	C453.641174,479.852478 453.644867,477.928375 453.937805,476.156647 
	C456.590668,460.111755 472.515472,450.394135 488.009094,455.336395 
	C490.334808,456.078308 492.569916,457.104340 494.785095,457.974609 
	C495.143219,457.472900 495.489075,457.214478 495.489929,456.954926 
	C495.560089,435.803345 495.603394,414.651733 495.649475,392.500061 
M506.346802,445.499908 
	C506.350586,460.326569 506.212494,475.155151 506.413177,489.979156 
	C506.527466,498.423340 509.859711,505.432739 518.144226,508.626648 
	C526.105957,511.696106 533.644043,510.347931 539.662048,503.936737 
	C542.697449,500.702942 545.678101,500.458923 549.467529,502.390289 
	C552.735046,504.055573 556.256042,505.107666 560.065430,504.356750 
	C572.212463,501.962311 578.150635,492.696503 575.446594,480.298340 
	C573.876953,473.101166 574.437195,472.126770 581.437073,469.879150 
	C592.583374,466.300110 600.074402,457.555023 600.503052,446.194000 
	C600.920959,435.116516 595.898682,426.645630 585.975647,421.356354 
	C583.142212,419.846100 580.118408,418.604614 580.520081,414.536102 
	C580.896667,410.721466 583.945923,410.092377 586.792603,409.070282 
	C593.184692,406.775146 597.009521,401.415649 596.603760,395.543854 
	C596.157349,389.083252 591.811157,384.112976 585.281433,382.595581 
	C577.155334,380.707153 576.532959,379.547516 579.222595,371.306183 
	C582.987305,359.770782 579.645874,348.447113 570.380005,341.339691 
	C561.873413,334.814667 549.672363,334.597168 539.951721,340.862335 
	C537.172607,342.653503 534.275757,344.411530 531.370178,341.610260 
	C528.408386,338.754822 529.634155,335.674103 531.521118,332.573792 
	C534.851807,327.101440 534.597778,321.105072 531.149658,316.684265 
	C527.818176,312.412903 521.946289,310.431488 516.863159,311.863434 
	C510.909302,313.540649 506.666016,318.003174 506.528351,324.512787 
	C506.197357,340.163849 506.086975,355.837708 506.576904,371.480774 
	C506.840332,379.891785 513.253723,385.567352 521.068176,385.921661 
	C529.261719,386.293152 534.960266,381.686981 536.921692,373.117798 
	C537.255981,371.657593 537.431763,370.122223 538.015564,368.765747 
	C539.413513,365.517914 543.809937,364.596497 546.435669,366.952850 
	C548.895569,369.160278 548.542542,372.094452 548.070801,374.888275 
	C545.185974,391.973663 527.726013,401.608154 511.694824,395.083954 
	C510.108459,394.438354 508.734436,392.867126 506.347321,393.608948 
	C506.347321,410.556946 506.347321,427.528412 506.346802,445.499908 
z"/>
<path fill="#000000" opacity="1.000000" stroke="none" 
	d="
M458.455139,359.316895 
	C464.596924,359.546570 469.660675,365.702057 470.284149,373.247253 
	C470.745483,378.830719 470.307800,384.299072 466.898926,389.024567 
	C465.180939,391.406158 465.588531,393.046783 467.659821,395.001007 
	C471.563599,398.684204 473.473633,403.505157 474.197937,408.725891 
	C474.668610,412.118225 473.853851,415.305359 469.975739,416.128326 
	C465.789551,417.016724 464.027863,414.399353 463.124023,410.684875 
	C460.994293,401.932343 457.780273,399.312347 448.852112,399.367249 
	C443.077789,399.402771 438.081329,397.557068 433.553711,394.171814 
	C430.443817,391.846588 429.303589,388.735657 431.667419,385.510040 
	C433.982666,382.350769 437.049683,383.049927 440.031921,385.092102 
	C445.894714,389.106781 451.694183,388.971619 455.990112,384.874512 
	C460.566040,380.510406 460.809052,375.069427 456.479004,368.653412 
	C453.976837,364.945831 453.930725,361.895386 458.455139,359.316895 
z"/>
<path fill="#000000" opacity="1.000000" stroke="none" 
	d="
M558.131226,454.231018 
	C557.957275,460.650055 556.385559,466.150940 552.189209,470.636627 
	C549.915833,473.066711 547.255493,474.317505 544.311401,471.847992 
	C541.569092,469.547791 541.460693,466.734741 543.565674,463.882385 
	C545.267761,461.575989 546.638428,459.220764 546.761963,456.199493 
	C547.138855,446.984436 538.223816,441.158173 529.923523,445.317261 
	C528.592407,445.984283 527.426941,446.974152 526.124512,447.707581 
	C523.454773,449.211060 520.902649,448.982269 518.982178,446.530518 
	C516.921448,443.899567 517.384949,441.329987 519.687256,438.935974 
	C525.434082,432.960297 535.595459,431.032806 544.228699,434.746277 
	C547.166321,436.009827 549.485107,436.235840 552.591553,434.959167 
	C560.394775,431.752045 567.933289,433.067871 574.787292,437.935669 
	C577.962463,440.190735 579.799255,443.224396 577.269531,446.863525 
	C574.797546,450.419525 571.612366,449.507416 568.585815,447.243835 
	C567.791077,446.649445 566.901184,446.165894 566.011536,445.717712 
	C563.221375,444.312134 560.182617,443.388672 557.508179,445.427551 
	C555.068359,447.287598 557.745972,449.691437 557.622009,451.875977 
	C557.586182,452.508331 557.926147,453.161987 558.131226,454.231018 
z"/>
</svg>